# xmcd CD database file
#
# Track frame offsets:
#	150
#	16193
#	32177
#	50934
#	70050
#	95216
#	115537
#	136255
#	156944
#
# Disc length: 2353 seconds
#
# Revision: 0
# Processed by: cddbd v1.5.2PL0 Copyright (c) Steve Scherf et al.
# Submitted via: CDex 1.51
#
DISCID=78092f09
DTITLE=Thierry Maillard - Behind the mirror
DYEAR=2010
DGENRE=Jazz
TTITLE0=Lotus' ballad
TTITLE1=Miss tik
TTITLE2=Bhajan...
TTITLE3=Trio west
TTITLE4=Tempo riz-action
TTITLE5=Never ending day
TTITLE6=Triolisme
TTITLE7=Ergot
TTITLE8=Lac balaton
EXTD=YEAR: 2010
EXTT0=
EXTT1=
EXTT2=
EXTT3=
EXTT4=
EXTT5=
EXTT6=
EXTT7=
EXTT8=
PLAYORDER=
